<svg width="34" height="28" viewBox="0 0 34 28" fill="none" xmlns="http://www.w3.org/2000/svg">
<path d="M14 18.9329L21.785 13.79L14 8.64718V18.9329ZM31.34 5.51004C31.535 6.31575 31.67 7.39575 31.76 8.76718C31.865 10.1386 31.91 11.3215 31.91 12.35L32 13.79C32 17.5443 31.76 20.3043 31.34 22.07C30.965 23.6129 30.095 24.6072 28.745 25.0358C28.04 25.2586 26.75 25.4129 24.77 25.5158C22.82 25.6358 21.035 25.6872 19.385 25.6872L17 25.79C10.715 25.79 6.8 25.5158 5.255 25.0358C3.905 24.6072 3.035 23.6129 2.66 22.07C2.465 21.2643 2.33 20.1843 2.24 18.8129C2.135 17.4415 2.09 16.2586 2.09 15.23L2 13.79C2 10.0358 2.24 7.27575 2.66 5.51004C3.035 3.96718 3.905 2.9729 5.255 2.54432C5.96 2.32147 7.25 2.16718 9.23 2.06432C11.18 1.94432 12.965 1.8929 14.615 1.8929L17 1.79004C23.285 1.79004 27.2 2.06432 28.745 2.54432C30.095 2.9729 30.965 3.96718 31.34 5.51004Z" stroke="#424242" stroke-width="2.5"/>
</svg>
