<svg width="16" height="23" viewBox="0 0 16 23" fill="none" xmlns="http://www.w3.org/2000/svg">
<path d="M8 5.63701C8.75776 5.63701 9.48449 5.92674 10.0203 6.44247C10.5561 6.95819 10.8571 7.65767 10.8571 8.38701C10.8571 8.74815 10.7832 9.10575 10.6397 9.43939C10.4961 9.77304 10.2856 10.0762 10.0203 10.3316C9.755 10.5869 9.44003 10.7895 9.09338 10.9277C8.74674 11.0659 8.37521 11.137 8 11.137C7.24224 11.137 6.51551 10.8473 5.9797 10.3316C5.44388 9.81583 5.14286 9.11636 5.14286 8.38701C5.14286 7.65767 5.44388 6.95819 5.9797 6.44247C6.51551 5.92674 7.24224 5.63701 8 5.63701ZM8 0.687012C10.1217 0.687012 12.1566 1.49826 13.6569 2.94229C15.1571 4.38632 16 6.34485 16 8.38701C16 14.162 8 22.687 8 22.687C8 22.687 0 14.162 0 8.38701C0 6.34485 0.842855 4.38632 2.34315 2.94229C3.84344 1.49826 5.87827 0.687012 8 0.687012ZM8 2.88701C6.48448 2.88701 5.03103 3.46647 3.95939 4.49792C2.88775 5.52937 2.28571 6.92832 2.28571 8.38701C2.28571 9.48701 2.28571 11.687 8 19.068C13.7143 11.687 13.7143 9.48701 13.7143 8.38701C13.7143 6.92832 13.1122 5.52937 12.0406 4.49792C10.969 3.46647 9.51552 2.88701 8 2.88701Z" fill="#424242"/>
</svg>
